P2
8 8
150
50 50 50 0 0 0 0 0
50 50 50 0 0 0 0 0
50 50 50 0 0 0 0 0
0 0 0 0 0 0 0 0
0 0 0 0 0 120 120 120
0 0 0 0 0 120 120 120
0 0 0 0 0 120 120 120
0 0 0 0 0 0 0 0