P2
15 15
255
0 0 0 0 0 0 0 0 0 0 0 0 0 0 0
0 10 10 10 0 20 20 20 0 30 30 30 0 0 0
0 10 255 10 0 20 255 20 0 30 255 30 0 0 0
0 10 10 10 0 20 20 20 0 30 30 30 0 0 0
0 0 0 0 0 0 0 0 0 0 0 0 0 0 0
0 40 40 40 0 50 50 50 0 60 60 60 0 0 0
0 40 255 40 0 50 255 50 0 60 255 60 0 0 0
0 40 40 40 0 50 50 50 0 60 60 60 0 0 0
0 0 0 0 0 0 0 0 0 0 0 0 0 0 0
0 0 0 0 0 0 0 0 0 0 0 0 0 0 0
0 0 0 0 0 0 0 0 0 0 0 0 0 0 0
0 0 0 0 0 0 0 0 0 0 0 0 0 0 0
0 0 0 0 0 0 0 0 0 0 0 0 0 0 0
0 0 0 0 0 0 0 0 0 0 0 0 0 0 0
0 0 0 0 0 0 0 0 0 0 0 0 0 0 0
