P2
32 44
235
0 0 0 0 0 0 0 0 0 0 0 0 0 0 0 0 0 0 0 0 0 0 0 0 0 0 0 0 0 0 0 0
0 0 0 10 0 0 0 0 0 15 0 0 0 0 0 20 0 0 0 0 0 25 0 0 0 0 0 30 0 0 0 0
0 0 10 10 10 0 0 0 15 15 15 0 0 0 20 20 20 0 0 0 25 25 25 0 0 0 30 30 30 0 0 0
0 10 10 10 10 10 0 15 15 15 15 15 0 20 20 20 20 20 0 25 25 25 25 25 0 30 30 30 30 30 0 0
0 0 10 10 10 0 0 0 15 15 15 0 0 0 20 20 20 0 0 0 25 25 25 0 0 0 30 30 30 0 0 0
0 0 0 10 0 0 0 0 0 15 0 0 0 0 0 20 0 0 0 0 0 25 0 0 0 0 0 30 0 0 0 0
0 0 0 0 0 0 0 0 0 0 0 0 0 0 0 0 0 0 0 0 0 0 0 0 0 0 0 0 0 0 0 0
0 0 0 0 0 0 0 0 0 0 0 0 0 0 0 0 0 0 0 0 0 0 0 0 0 0 0 0 0 0 0 0
0 0 0 35 0 0 0 0 0 40 0 0 0 0 0 45 0 0 0 0 0 50 0 0 0 0 0 55 0 0 0 0
0 0 35 35 35 0 0 0 40 40 40 0 0 0 45 45 45 0 0 0 50 50 50 0 0 0 55 55 55 0 0 0
0 35 35 35 35 35 0 40 40 40 40 40 0 45 45 45 45 45 0 50 50 50 50 50 0 55 55 55 55 55 0 0
0 0 35 35 35 0 0 0 40 40 40 0 0 0 45 45 45 0 0 0 50 50 50 0 0 0 55 55 55 0 0 0
0 0 0 35 0 0 0 0 0 40 0 0 0 0 0 45 0 0 0 0 0 50 0 0 0 0 0 55 0 0 0 0
0 0 0 0 0 0 0 0 0 0 0 0 0 0 0 0 0 0 0 0 0 0 0 0 0 0 0 0 0 0 0 0
0 0 0 0 0 0 0 0 0 0 0 0 0 0 0 0 0 0 0 0 0 0 0 0 0 0 0 0 0 0 0 0
0 0 0 60 0 0 0 0 0 65 0 0 0 0 0 70 0 0 0 0 0 75 0 0 0 0 0 80 0 0 0 0
0 0 60 60 60 0 0 0 65 65 65 0 0 0 70 70 70 0 0 0 75 75 75 0 0 0 80 80 80 0 0 0
0 60 60 60 60 60 0 65 65 65 65 65 0 70 70 70 70 70 0 75 75 75 75 75 0 80 80 80 80 80 0 0
0 0 60 60 60 0 0 0 65 65 65 0 0 0 70 70 70 0 0 0 75 75 75 0 0 0 80 80 80 0 0 0
0 0 0 60 0 0 0 0 0 65 0 0 0 0 0 70 0 0 0 0 0 75 0 0 0 0 0 80 0 0 0 0
0 0 0 0 0 0 0 0 0 0 0 0 0 0 0 0 0 0 0 0 0 0 0 0 0 0 0 0 0 0 0 0
0 0 0 0 0 0 0 0 0 0 0 0 0 0 0 0 0 0 0 0 0 0 0 0 0 0 0 0 0 0 0 0
0 0 0 85 0 0 0 0 0 90 0 0 0 0 0 95 0 0 0 0 0 100 0 0 0 0 0 105 0 0 0 0
0 0 85 85 85 0 0 0 90 90 90 0 0 0 95 95 95 0 0 0 100 100 100 0 0 0 105 105 105 0 0 0
0 85 85 85 85 85 0 90 90 90 90 90 0 95 95 95 95 95 0 100 100 100 100 100 0 105 105 105 105 105 0 0
0 0 85 85 85 0 0 0 90 90 90 0 0 0 95 95 95 0 0 0 100 100 100 0 0 0 105 105 105 0 0 0
0 0 0 85 0 0 0 0 0 90 0 0 0 0 0 95 0 0 0 0 0 100 0 0 0 0 0 105 0 0 0 0
0 0 0 0 0 0 0 0 0 0 0 0 0 0 0 0 0 0 0 0 0 0 0 0 0 0 0 0 0 0 0 0
0 0 0 0 0 0 0 0 0 0 0 0 0 0 0 0 0 0 0 0 0 0 0 0 0 0 0 0 0 0 0 0
0 0 0 110 0 0 0 0 0 115 0 0 0 0 0 120 0 0 0 0 0 125 0 0 0 0 0 130 0 0 0 0
0 0 110 110 110 0 0 0 115 115 115 0 0 0 120 120 120 0 0 0 125 125 125 0 0 0 130 130 130 0 0 0
0 110 110 110 110 110 0 115 115 115 115 115 0 120 120 120 120 120 0 125 125 125 125 125 0 130 130 130 130 130 0 0
0 0 110 110 110 0 0 0 115 115 115 0 0 0 120 120 120 0 0 0 125 125 125 0 0 0 130 130 130 0 0 0
0 0 0 110 0 0 0 0 0 115 0 0 0 0 0 120 0 0 0 0 0 125 0 0 0 0 0 130 0 0 0 0
0 0 0 0 0 0 0 0 0 0 0 0 0 0 0 0 0 0 0 0 0 0 0 0 0 0 0 0 0 0 0 0
0 0 0 0 0 0 0 0 0 0 0 0 0 0 0 0 0 0 0 0 0 0 0 0 0 0 0 0 0 0 0 0
0 0 0 135 0 0 0 0 0 140 0 0 0 0 0 145 0 0 0 0 0 150 0 0 0 0 0 155 0 0 0 0
0 0 135 135 135 0 0 0 140 140 140 0 0 0 145 145 145 0 0 0 150 150 150 0 0 0 155 155 155 0 0 0
0 135 135 135 135 135 0 140 140 140 140 140 0 145 145 145 145 145 0 150 150 150 150 150 0 155 155 155 155 155 0 0
0 0 135 135 135 0 0 0 140 140 140 0 0 0 145 145 145 0 0 0 150 150 150 0 0 0 155 155 155 0 0 0
0 0 0 135 0 0 0 0 0 140 0 0 0 0 0 145 0 0 0 0 0 150 0 0 0 0 0 155 0 0 0 0
0 0 0 0 0 0 0 0 0 0 0 0 0 0 0 0 0 0 0 0 0 0 0 0 0 0 0 0 0 0 0 0
0 0 0 0 0 0 0 0 0 0 0 0 0 0 0 0 0 0 0 0 0 0 0 0 0 0 0 0 0 0 0 0
0 0 0 0 0 0 0 0 0 0 0 0 0 0 0 0 0 0 0 0 0 0 0 0 0 0 0 0 0 0 0 0