P2
40 40
255
0 0 0 0 0 0 0 0 0 0 0 0 0 0 0 0 0 0 0 0 0 0 0 0 0 0 0 0 0 0 0 0 0 0 0 0 0 0 0 0
0 0 0 0 0 0 0 0 0 0 0 0 0 0 0 0 0 0 0 0 0 0 0 0 0 0 0 0 0 0 0 0 0 0 0 0 0 0 0 0
0 0 10 10 10 0 0 0 0 0 15 15 15 0 0 0 0 0 20 20 20 0 0 0 0 0 25 25 25 0 0 0 0 0 30 30 30 0 0 0
0 0 10 255 10 0 0 0 0 0 15 255 15 0 0 0 0 0 20 255 20 0 0 0 0 0 25 255 25 0 0 0 0 0 30 255 30 0 0 0
0 0 10 10 10 0 0 0 0 0 15 15 15 0 0 0 0 0 20 20 20 0 0 0 0 0 25 25 25 0 0 0 0 0 30 30 30 0 0 0
0 0 0 0 0 0 0 0 0 0 0 0 0 0 0 0 0 0 0 0 0 0 0 0 0 0 0 0 0 0 0 0 0 0 0 0 0 0 0 0
0 0 0 0 0 0 0 0 0 0 0 0 0 0 0 0 0 0 0 0 0 0 0 0 0 0 0 0 0 0 0 0 0 0 0 0 0 0 0 0
0 0 0 0 0 0 0 0 0 0 0 0 0 0 0 0 0 0 0 0 0 0 0 0 0 0 0 0 0 0 0 0 0 0 0 0 0 0 0 0
0 0 35 35 35 0 0 0 0 0 40 40 40 0 0 0 0 0 45 45 45 0 0 0 0 0 50 50 50 0 0 0 0 0 55 55 55 0 0 0
0 0 35 255 35 0 0 0 0 0 40 255 40 0 0 0 0 0 45 255 45 0 0 0 0 0 50 255 50 0 0 0 0 0 55 255 55 0 0 0
0 0 35 35 35 0 0 0 0 0 40 40 40 0 0 0 0 0 45 45 45 0 0 0 0 0 50 50 50 0 0 0 0 0 55 55 55 0 0 0
0 0 0 0 0 0 0 0 0 0 0 0 0 0 0 0 0 0 0 0 0 0 0 0 0 0 0 0 0 0 0 0 0 0 0 0 0 0 0 0
0 0 0 0 0 0 0 0 0 0 0 0 0 0 0 0 0 0 0 0 0 0 0 0 0 0 0 0 0 0 0 0 0 0 0 0 0 0 0 0
0 0 0 0 0 0 0 0 0 0 0 0 0 0 0 0 0 0 0 0 0 0 0 0 0 0 0 0 0 0 0 0 0 0 0 0 0 0 0 0
0 0 60 60 60 0 0 0 0 0 65 65 65 0 0 0 0 0 70 70 70 0 0 0 0 0 75 75 75 0 0 0 0 0 80 80 80 0 0 0
0 0 60 255 60 0 0 0 0 0 65 255 65 0 0 0 0 0 70 255 70 0 0 0 0 0 75 255 75 0 0 0 0 0 80 255 80 0 0 0
0 0 60 60 60 0 0 0 0 0 65 65 65 0 0 0 0 0 70 70 70 0 0 0 0 0 75 75 75 0 0 0 0 0 80 80 80 0 0 0
0 0 0 0 0 0 0 0 0 0 0 0 0 0 0 0 0 0 0 0 0 0 0 0 0 0 0 0 0 0 0 0 0 0 0 0 0 0 0 0
0 0 0 0 0 0 0 0 0 0 0 0 0 0 0 0 0 0 0 0 0 0 0 0 0 0 0 0 0 0 0 0 0 0 0 0 0 0 0 0
0 0 0 0 0 0 0 0 0 0 0 0 0 0 0 0 0 0 0 0 0 0 0 0 0 0 0 0 0 0 0 0 0 0 0 0 0 0 0 0
0 0 85 85 85 0 0 0 0 0 90 90 90 0 0 0 0 0 95 95 95 0 0 0 0 0 100 100 100 0 0 0 0 0 105 105 105 0 0 0
0 0 85 255 85 0 0 0 0 0 90 255 90 0 0 0 0 0 95 255 95 0 0 0 0 0 100 255 100 0 0 0 0 0 105 255 105 0 0 0
0 0 85 85 85 0 0 0 0 0 90 90 90 0 0 0 0 0 95 95 95 0 0 0 0 0 100 100 100 0 0 0 0 0 105 105 105 0 0 0
0 0 0 0 0 0 0 0 0 0 0 0 0 0 0 0 0 0 0 0 0 0 0 0 0 0 0 0 0 0 0 0 0 0 0 0 0 0 0 0
0 0 0 0 0 0 0 0 0 0 0 0 0 0 0 0 0 0 0 0 0 0 0 0 0 0 0 0 0 0 0 0 0 0 0 0 0 0 0 0
0 0 0 0 0 0 0 0 0 0 0 0 0 0 0 0 0 0 0 0 0 0 0 0 0 0 0 0 0 0 0 0 0 0 0 0 0 0 0 0
0 0 110 110 110 0 0 0 0 0 115 115 115 0 0 0 0 0 120 120 120 0 0 0 0 0 125 125 125 0 0 0 0 0 130 130 130 0 0 0
0 0 110 255 110 0 0 0 0 0 115 255 115 0 0 0 0 0 120 255 120 0 0 0 0 0 125 255 125 0 0 0 0 0 130 255 130 0 0 0
0 0 110 110 110 0 0 0 0 0 115 115 115 0 0 0 0 0 120 120 120 0 0 0 0 0 125 125 125 0 0 0 0 0 130 130 130 0 0 0
0 0 0 0 0 0 0 0 0 0 0 0 0 0 0 0 0 0 0 0 0 0 0 0 0 0 0 0 0 0 0 0 0 0 0 0 0 0 0 0
0 0 0 0 0 0 0 0 0 0 0 0 0 0 0 0 0 0 0 0 0 0 0 0 0 0 0 0 0 0 0 0 0 0 0 0 0 0 0 0
0 0 0 0 0 0 0 0 0 0 0 0 0 0 0 0 0 0 0 0 0 0 0 0 0 0 0 0 0 0 0 0 0 0 0 0 0 0 0 0
0 0 0 0 0 0 0 0 0 0 0 0 0 0 0 0 0 0 0 0 0 0 0 0 0 0 0 0 0 0 0 0 0 0 0 0 0 0 0 0
0 0 0 0 0 0 0 0 0 0 0 0 0 0 0 0 0 0 0 0 0 0 0 0 0 0 0 0 0 0 0 0 0 0 0 0 0 0 0 0
0 0 0 0 0 0 0 0 0 0 0 0 0 0 0 0 0 0 0 0 0 0 0 0 0 0 0 0 0 0 0 0 0 0 0 0 0 0 0 0
0 0 0 0 0 0 0 0 0 0 0 0 0 0 0 0 0 0 0 0 0 0 0 0 0 0 0 0 0 0 0 0 0 0 0 0 0 0 0 0
0 0 0 0 0 0 0 0 0 0 0 0 0 0 0 0 0 0 0 0 0 0 0 0 0 0 0 0 0 0 0 0 0 0 0 0 0 0 0 0
0 0 0 0 0 0 0 0 0 0 0 0 0 0 0 0 0 0 0 0 0 0 0 0 0 0 0 0 0 0 0 0 0 0 0 0 0 0 0 0
0 0 0 0 0 0 0 0 0 0 0 0 0 0 0 0 0 0 0 0 0 0 0 0 0 0 0 0 0 0 0 0 0 0 0 0 0 0 0 0
0 0 0 0 0 0 0 0 0 0 0 0 0 0 0 0 0 0 0 0 0 0 0 0 0 0 0 0 0 0 0 0 0 0 0 0 0 0 0 0
